<?xml version="1.0" encoding="UTF-8" standalone="no"?>
<svg
   xmlns:dc="http://purl.org/dc/elements/1.1/"
   xmlns:cc="http://creativecommons.org/ns#"
   xmlns:rdf="http://www.w3.org/1999/02/22-rdf-syntax-ns#"
   xmlns:svg="http://www.w3.org/2000/svg"
   xmlns="http://www.w3.org/2000/svg"
   width="40"
   height="12.32283"
   viewBox="0 0 39.999983 12.322825"
   id="svg2"
   version="1.1">
  <defs
     id="defs4" />
  <metadata
     id="metadata7">
    <rdf:RDF>
      <cc:Work
         rdf:about="">
        <dc:format>image/svg+xml</dc:format>
        <dc:type
           rdf:resource="http://purl.org/dc/dcmitype/StillImage" />
        <dc:title></dc:title>
      </cc:Work>
    </rdf:RDF>
  </metadata>
  <g
     id="layer1"
     transform="matrix(-0.14278661,0,0,0.18313581,40.819975,-180.44838)">
    <path
       style="fill:#222;stroke:none;stroke-width:1px;stroke-linecap:butt;stroke-linejoin:miter;stroke-opacity:1"
       d="m 276.79291,1050.9838 c -2.98316,-0.9055 -8.28153,-5.4953 -16.78093,-14.5367 -7.68508,-8.1752 -8.52939,-8.8943 -19.24775,-16.3936 -15.96417,-11.1697 -26.2348,-17.0263 -34.11288,-19.4522 -5.29705,-1.63106 -10.19599,-2.38992 -20.78559,-3.2197 -14.96173,-1.17239 -31.36789,-1.19201 -60.26783,-0.072 -24.28418,0.94107 -115.6808122,4.0539 -116.4250432,3.9653 -1.888085,-0.2249 35.2703452,-5.02397 55.9234852,-7.22254 69.870958,-7.43811 119.198198,-8.08786 141.312048,-1.86143 13.1506,3.70272 34.51374,14.93737 49.51659,26.04037 15.13014,11.1972 24.03578,20.8519 25.72404,27.8877 0.94731,3.948 -1.10468,6.0037 -4.85614,4.8649 z"
       id="path4177-1" />
  </g>
</svg>
