<?xml version="1.0" encoding="UTF-8" standalone="no"?>
<!-- Generator: Adobe Illustrator 16.0.0, SVG Export Plug-In . SVG Version: 6.00 Build 0)  -->

<svg
   xmlns:dc="http://purl.org/dc/elements/1.1/"
   xmlns:cc="http://creativecommons.org/ns#"
   xmlns:rdf="http://www.w3.org/1999/02/22-rdf-syntax-ns#"
   xmlns:svg="http://www.w3.org/2000/svg"
   xmlns="http://www.w3.org/2000/svg"
   xmlns:sodipodi="http://sodipodi.sourceforge.net/DTD/sodipodi-0.dtd"
   xmlns:inkscape="http://www.inkscape.org/namespaces/inkscape"
   version="1.1"
   id="Capa_1"
   x="0px"
   y="0px"
   width="512px"
   height="512px"
   viewBox="0 0 461.264 461.265"
   style="enable-background:new 0 0 461.264 461.265;"
   xml:space="preserve"
   inkscape:version="0.91 r13725"
   sodipodi:docname="glass-search.svg"><metadata
     id="metadata45"><rdf:RDF><cc:Work
         rdf:about=""><dc:format>image/svg+xml</dc:format><dc:type
           rdf:resource="http://purl.org/dc/dcmitype/StillImage" /><dc:title></dc:title></cc:Work></rdf:RDF></metadata><defs
     id="defs43" /><sodipodi:namedview
     pagecolor="#ffffff"
     bordercolor="#666666"
     borderopacity="1"
     objecttolerance="10"
     gridtolerance="10"
     guidetolerance="10"
     inkscape:pageopacity="0"
     inkscape:pageshadow="2"
     inkscape:window-width="1865"
     inkscape:window-height="1056"
     id="namedview41"
     showgrid="false"
     inkscape:zoom="0.4609375"
     inkscape:cx="-240.81356"
     inkscape:cy="256"
     inkscape:window-x="55"
     inkscape:window-y="24"
     inkscape:window-maximized="1"
     inkscape:current-layer="Capa_1" /><g
     id="g3"
     style="fill:#2b0000"><g
       id="g5"
       style="fill:#2b0000"><path
         d="M451.657,436.96L289.411,274.706c26.967-29.199,43.482-68.188,43.482-110.977C332.893,73.449,259.446,0,169.165,0    C78.885,0,5.436,73.448,5.436,163.729c0,90.279,73.449,163.729,163.729,163.729c37.256,0,71.621-12.528,99.166-33.566    l163.191,163.202c2.781,2.779,6.424,4.171,10.066,4.171s7.293-1.392,10.066-4.171C457.219,451.531,457.219,442.522,451.657,436.96    z M33.914,163.73c0-74.582,60.677-135.252,135.252-135.252c74.583,0,135.254,60.67,135.254,135.252    c0,74.583-60.672,135.252-135.254,135.252C94.591,298.982,33.914,238.312,33.914,163.73z"
         fill="#FFFFFF"
         id="path9"
         style="fill:#ffffff" /></g></g><g
     id="g11" /><g
     id="g13" /><g
     id="g15" /><g
     id="g17" /><g
     id="g19" /><g
     id="g21" /><g
     id="g23" /><g
     id="g25" /><g
     id="g27" /><g
     id="g29" /><g
     id="g31" /><g
     id="g33" /><g
     id="g35" /><g
     id="g39" /></svg>
