<?xml version="1.0" encoding="iso-8859-1"?>
<!-- Generator: Adobe Illustrator 19.0.0, SVG Export Plug-In . SVG Version: 6.00 Build 0)  -->
<svg version="1.1" id="Layer_1" xmlns="http://www.w3.org/2000/svg" xmlns:xlink="http://www.w3.org/1999/xlink" x="0px" y="0px"
	 viewBox="0 0 512 512" style="enable-background:new 0 0 512 512;" xml:space="preserve">
<g>
	<g>
		<g>
			<rect x="208.464" y="107.004" width="15.632" height="39.715"/>
			<rect x="160.808" y="107.004" width="15.632" height="39.715"/>
			<rect x="208.464" y="369.147" width="15.632" height="39.715"/>
			<rect x="160.808" y="369.147" width="15.632" height="39.715"/>
			<path d="M192.452,0l-5.81,6.455c-47.396,52.662-73.498,120.684-73.498,191.534v111.947c0,70.85,26.102,138.872,73.498,191.534
				l5.81,6.455l5.81-6.455c47.396-52.663,73.499-120.685,73.499-191.534V197.988c-0.001-70.849-26.103-138.869-73.5-191.534
				L192.452,0z M192.452,178.371c13.211,0,23.958,10.747,23.958,23.958v79.563h-47.916v-79.563
				C168.494,189.119,179.241,178.371,192.452,178.371z M184.636,474.617c-36.158-47.127-55.86-104.834-55.86-164.682V265.75h16.015
				v-15.632h-16.015v-52.129c0-59.848,19.702-117.554,55.86-164.682v130.211c-18.099,3.639-31.774,19.657-31.774,38.811v111.21
				c0,19.155,13.676,35.172,31.774,38.811V474.617z M192.452,337.497c-13.211,0-23.958-10.747-23.958-23.958v-16.015h47.916v16.015
				C216.41,326.749,205.662,337.497,192.452,337.497z M200.266,33.307c36.158,47.128,55.861,104.835,55.861,164.682v52.128h-16.015
				v15.632h16.015v44.185c0,59.847-19.702,117.554-55.861,164.681V352.35c18.099-3.639,31.774-19.657,31.774-38.811v-111.21
				c0-19.155-13.675-35.172-31.774-38.811V33.307z"/>
			<path d="M398.856,98.892V3.867h-79.522v95.025c0,19.309,13.838,35.441,32.116,39.016l-0.001,240.025
				c-18.267,3.507-32.115,19.599-32.115,38.874V512h79.522v-95.194c0-19.155-13.676-35.173-31.775-38.812l0.001-240.147
				C385.192,134.139,398.856,118.081,398.856,98.892z M383.224,416.806v79.562h-48.259v-79.562
				c0-13.211,10.748-23.959,23.959-23.959h0.34C372.477,392.847,383.224,403.596,383.224,416.806z M359.096,123.021
				c-13.305,0-24.13-10.824-24.13-24.129V19.499h48.259v79.393C383.225,112.197,372.401,123.021,359.096,123.021z"/>
			<rect x="343.375" y="91.247" width="31.774" height="15.632"/>
			<rect x="343.375" y="408.986" width="31.774" height="15.632"/>
		</g>
	</g>
</g>
<g>
</g>
<g>
</g>
<g>
</g>
<g>
</g>
<g>
</g>
<g>
</g>
<g>
</g>
<g>
</g>
<g>
</g>
<g>
</g>
<g>
</g>
<g>
</g>
<g>
</g>
<g>
</g>
<g>
</g>
</svg>
